<mxfile host="app.diagrams.net" modified="2023-10-12T04:10:27.555Z" agent="Mozilla/5.0 (Macintosh; Intel Mac OS X 10_15_7) AppleWebKit/537.36 (KHTML, like Gecko) Chrome/117.0.0.0 Safari/537.36" etag="m9EvMCpc9pwqv23sOkHj" version="22.0.4" type="device">
  <diagram name="Page-1" id="mnrZyUaZib6DljGkKkjA">
    <mxGraphModel dx="984" dy="661" grid="1" gridSize="10" guides="1" tooltips="1" connect="1" arrows="1" fold="1" page="1" pageScale="1" pageWidth="827" pageHeight="1169" math="0" shadow="0">
      <root>
        <mxCell id="0" />
        <mxCell id="1" parent="0" />
        <mxCell id="A50uGGs5c9FbbZAN8joq-1" value="Project Manager&lt;br&gt;(AI)" style="whiteSpace=wrap;html=1;aspect=fixed;fillColor=#ffe6cc;strokeColor=#d79b00;" vertex="1" parent="1">
          <mxGeometry x="230" y="190" width="80" height="80" as="geometry" />
        </mxCell>
        <mxCell id="A50uGGs5c9FbbZAN8joq-3" value="User" style="shape=umlActor;verticalLabelPosition=bottom;verticalAlign=top;html=1;outlineConnect=0;" vertex="1" parent="1">
          <mxGeometry x="70" y="200" width="30" height="60" as="geometry" />
        </mxCell>
        <mxCell id="A50uGGs5c9FbbZAN8joq-6" value="" style="shape=flexArrow;endArrow=classic;html=1;rounded=0;fillColor=#dae8fc;strokeColor=#6c8ebf;" edge="1" parent="1">
          <mxGeometry width="50" height="50" relative="1" as="geometry">
            <mxPoint x="130" y="229.5" as="sourcePoint" />
            <mxPoint x="220" y="229.5" as="targetPoint" />
          </mxGeometry>
        </mxCell>
        <mxCell id="A50uGGs5c9FbbZAN8joq-9" value="Prompt" style="text;html=1;strokeColor=none;fillColor=none;align=center;verticalAlign=middle;whiteSpace=wrap;rounded=0;" vertex="1" parent="1">
          <mxGeometry x="140" y="200" width="60" height="30" as="geometry" />
        </mxCell>
        <mxCell id="A50uGGs5c9FbbZAN8joq-10" value="Developer&lt;br&gt;(AI)" style="whiteSpace=wrap;html=1;aspect=fixed;fillColor=#ffe6cc;strokeColor=#d79b00;" vertex="1" parent="1">
          <mxGeometry x="420" y="190" width="80" height="80" as="geometry" />
        </mxCell>
        <mxCell id="A50uGGs5c9FbbZAN8joq-11" value="" style="shape=flexArrow;endArrow=classic;html=1;rounded=0;fillColor=#dae8fc;strokeColor=#6c8ebf;" edge="1" parent="1">
          <mxGeometry width="50" height="50" relative="1" as="geometry">
            <mxPoint x="324" y="229.5" as="sourcePoint" />
            <mxPoint x="414" y="229.5" as="targetPoint" />
          </mxGeometry>
        </mxCell>
        <mxCell id="A50uGGs5c9FbbZAN8joq-12" value="Task" style="text;html=1;strokeColor=none;fillColor=none;align=center;verticalAlign=middle;whiteSpace=wrap;rounded=0;" vertex="1" parent="1">
          <mxGeometry x="334" y="200" width="60" height="30" as="geometry" />
        </mxCell>
        <mxCell id="A50uGGs5c9FbbZAN8joq-14" value="Code Reviewer&lt;br&gt;(AI)" style="whiteSpace=wrap;html=1;aspect=fixed;fillColor=#ffe6cc;strokeColor=#d79b00;" vertex="1" parent="1">
          <mxGeometry x="600" y="190" width="80" height="80" as="geometry" />
        </mxCell>
        <mxCell id="A50uGGs5c9FbbZAN8joq-15" value="" style="shape=flexArrow;endArrow=classic;html=1;rounded=0;fillColor=#dae8fc;strokeColor=#6c8ebf;" edge="1" parent="1">
          <mxGeometry width="50" height="50" relative="1" as="geometry">
            <mxPoint x="510" y="250" as="sourcePoint" />
            <mxPoint x="590" y="250" as="targetPoint" />
          </mxGeometry>
        </mxCell>
        <mxCell id="A50uGGs5c9FbbZAN8joq-18" value="Code" style="edgeLabel;html=1;align=center;verticalAlign=middle;resizable=0;points=[];" vertex="1" connectable="0" parent="A50uGGs5c9FbbZAN8joq-15">
          <mxGeometry x="-0.225" y="3" relative="1" as="geometry">
            <mxPoint y="-17" as="offset" />
          </mxGeometry>
        </mxCell>
        <mxCell id="A50uGGs5c9FbbZAN8joq-19" value="" style="shape=flexArrow;endArrow=classic;html=1;rounded=0;fillColor=#dae8fc;strokeColor=#6c8ebf;" edge="1" parent="1">
          <mxGeometry width="50" height="50" relative="1" as="geometry">
            <mxPoint x="590" y="200" as="sourcePoint" />
            <mxPoint x="510" y="200" as="targetPoint" />
          </mxGeometry>
        </mxCell>
        <mxCell id="A50uGGs5c9FbbZAN8joq-20" value="Feedback" style="edgeLabel;html=1;align=center;verticalAlign=middle;resizable=0;points=[];" vertex="1" connectable="0" parent="A50uGGs5c9FbbZAN8joq-19">
          <mxGeometry x="-0.225" y="3" relative="1" as="geometry">
            <mxPoint y="-17" as="offset" />
          </mxGeometry>
        </mxCell>
        <mxCell id="A50uGGs5c9FbbZAN8joq-21" value="Browser&lt;br&gt;(Output)" style="whiteSpace=wrap;html=1;aspect=fixed;fillColor=#d5e8d4;strokeColor=#82b366;" vertex="1" parent="1">
          <mxGeometry x="420" y="410" width="80" height="80" as="geometry" />
        </mxCell>
        <mxCell id="A50uGGs5c9FbbZAN8joq-22" value="" style="shape=flexArrow;endArrow=classic;html=1;rounded=0;fillColor=#dae8fc;strokeColor=#6c8ebf;" edge="1" parent="1">
          <mxGeometry width="50" height="50" relative="1" as="geometry">
            <mxPoint x="459" y="280" as="sourcePoint" />
            <mxPoint x="459" y="390" as="targetPoint" />
          </mxGeometry>
        </mxCell>
        <mxCell id="A50uGGs5c9FbbZAN8joq-23" value="Publish" style="text;html=1;strokeColor=none;fillColor=none;align=center;verticalAlign=middle;whiteSpace=wrap;rounded=0;" vertex="1" parent="1">
          <mxGeometry x="470" y="310" width="60" height="30" as="geometry" />
        </mxCell>
      </root>
    </mxGraphModel>
  </diagram>
</mxfile>
